<svg width="26" height="26" viewBox="0 0 26 26" fill="none" xmlns="http://www.w3.org/2000/svg">
<g clip-path="url(#clip0)">
<path d="M13.0913 25.9898C5.98235 25.9898 0.219727 20.2272 0.219727 13.1182C0.219727 6.00921 5.98235 0.246582 13.0913 0.246582C20.2003 0.246582 25.963 6.00921 25.963 13.1182C25.963 20.2272 20.2003 25.9898 13.0913 25.9898ZM13.0913 23.4155C15.8224 23.4155 18.4415 22.3306 20.3726 20.3995C22.3038 18.4684 23.3886 15.8492 23.3886 13.1182C23.3886 10.3872 22.3038 7.76803 20.3726 5.83692C18.4415 3.9058 15.8224 2.82091 13.0913 2.82091C10.3603 2.82091 7.74118 3.9058 5.81006 5.83692C3.87894 7.76803 2.79405 10.3872 2.79405 13.1182C2.79405 15.8492 3.87894 18.4684 5.81006 20.3995C7.74118 22.3306 10.3603 23.4155 13.0913 23.4155V23.4155ZM11.8042 16.9797H14.3785V19.554H11.8042V16.9797ZM14.3785 14.8623V15.6925H11.8042V13.7618C11.8042 13.4204 11.9398 13.093 12.1812 12.8516C12.4226 12.6102 12.75 12.4746 13.0913 12.4746C13.457 12.4746 13.8151 12.3707 14.1241 12.1751C14.433 11.9795 14.68 11.7002 14.8364 11.3697C14.9928 11.0392 15.0522 10.671 15.0075 10.3081C14.9629 9.94521 14.8161 9.60243 14.5842 9.31967C14.3524 9.03692 14.045 8.82581 13.6979 8.71092C13.3508 8.59603 12.9781 8.58207 12.6234 8.67068C12.2686 8.75928 11.9463 8.94681 11.694 9.21143C11.4416 9.47605 11.2696 9.80689 11.1979 10.1655L8.67252 9.6596C8.82908 8.87711 9.19062 8.15023 9.72017 7.55327C10.2497 6.9563 10.9283 6.51066 11.6865 6.2619C12.4448 6.01314 13.2554 5.97019 14.0357 6.13743C14.816 6.30467 15.5379 6.6761 16.1275 7.21377C16.7172 7.75143 17.1535 8.43603 17.3919 9.19759C17.6303 9.95915 17.6621 10.7703 17.4843 11.5483C17.3064 12.3262 16.9251 13.0429 16.3794 13.6252C15.8338 14.2074 15.1433 14.6344 14.3785 14.8623V14.8623Z" fill="black" fill-opacity="0.35"/>
</g>
<defs>
<clipPath id="clip0">
<rect width="25.7432" height="25.7432" fill="white" transform="translate(0.219727 0.246582)"/>
</clipPath>
</defs>
</svg>
