<svg width="131" height="32" viewBox="0 0 131 32" fill="none" xmlns="http://www.w3.org/2000/svg">
<g clip-path="url(#clip0)">
<path d="M17.049 0.019043L0 11.0404L7.59215 15.9483L17.049 9.83492L26.5059 15.9483L34.0982 11.0404L17.049 0.019043Z" fill="#816AFE"/>
<path d="M7.59205 15.9482L0 20.8561L17.049 31.8775L34.0982 20.8561L26.5061 15.9482L17.049 22.0618L7.59205 15.9482Z" fill="#48D3FE"/>
<path d="M41.9404 26.1309H50.2771C54.6598 26.1309 56.9941 23.8442 56.9941 20.7383C56.9941 17.8514 54.9266 16.1079 52.7067 16.0031V15.8125C54.736 15.3551 56.2319 13.9165 56.2319 11.6204C56.2319 8.69542 54.0596 6.61841 49.753 6.61841H41.9404V26.1309ZM46.0659 22.7582V17.5752H49.5244C51.5062 17.5752 52.7352 18.7185 52.7352 20.3286C52.7352 21.7958 51.7348 22.7582 49.4291 22.7582H46.0659ZM46.0659 14.7836V9.95306H49.2005C51.0298 9.95306 52.0684 10.8963 52.0684 12.3064C52.0684 13.8498 50.8107 14.7836 49.1242 14.7836H46.0659Z" fill="#102440"/>
<path d="M58.2606 26.1311H62.3194V11.4968H58.2606V26.1311ZM60.2995 9.61029C61.5095 9.61029 62.5004 8.68612 62.5004 7.55234C62.5004 6.42808 61.5095 5.50391 60.2995 5.50391C59.099 5.50391 58.1082 6.42808 58.1082 7.55234C58.1082 8.68612 59.099 9.61029 60.2995 9.61029Z" fill="#102440"/>
<path d="M64.3054 26.1309H68.3071V23.7871H68.4881C69.0502 25.0067 70.2792 26.3691 72.642 26.3691C75.9767 26.3691 78.5778 23.7299 78.5778 18.8328C78.5778 13.8022 75.8625 11.306 72.6516 11.306C70.2031 11.306 69.0311 12.7637 68.4881 13.9547H68.3642V6.61841H64.3054V26.1309ZM68.2785 18.8136C68.2785 16.2032 69.3836 14.5359 71.3559 14.5359C73.3662 14.5359 74.4332 16.2794 74.4332 18.8136C74.4332 21.3671 73.3472 23.1392 71.3559 23.1392C69.4028 23.1392 68.2785 21.4242 68.2785 18.8136Z" fill="#102440"/>
<path d="M80.0208 26.1309H84.0223V23.7871H84.2034C84.7654 25.0067 85.9946 26.3691 88.3574 26.3691C91.6919 26.3691 94.293 23.7299 94.293 18.8328C94.293 13.8022 91.5776 11.306 88.3669 11.306C85.9183 11.306 84.7464 12.7637 84.2034 13.9547H84.0794V6.61841H80.0208V26.1309ZM83.9938 18.8136C83.9938 16.2032 85.099 14.5359 87.0711 14.5359C89.0815 14.5359 90.1485 16.2794 90.1485 18.8136C90.1485 21.3671 89.0624 23.1392 87.0711 23.1392C85.118 23.1392 83.9938 21.4242 83.9938 18.8136Z" fill="#102440"/>
<path d="M95.7361 26.1309H99.7378V23.7871H99.9187C100.481 25.0067 101.71 26.3691 104.073 26.3691C107.407 26.3691 110.008 23.7299 110.008 18.8328C110.008 13.8022 107.293 11.306 104.082 11.306C101.634 11.306 100.462 12.7637 99.9187 13.9547H99.7949V6.61841H95.7361V26.1309ZM99.7091 18.8136C99.7091 16.2032 100.814 14.5359 102.787 14.5359C104.797 14.5359 105.864 16.2794 105.864 18.8136C105.864 21.3671 104.778 23.1392 102.787 23.1392C100.833 23.1392 99.7091 21.4242 99.7091 18.8136Z" fill="#102440"/>
<path d="M115.434 6.61841H111.375V26.1309H115.434V6.61841Z" fill="#102440"/>
<path d="M124.013 26.417C127.633 26.417 130.072 24.6543 130.644 21.9389L126.89 21.6912C126.481 22.806 125.432 23.3872 124.08 23.3872C122.05 23.3872 120.764 22.0437 120.764 19.8619V19.8524H130.73V18.7377C130.73 13.7643 127.719 11.3062 123.851 11.3062C119.544 11.3062 116.753 14.3646 116.753 18.8806C116.753 23.5205 119.506 26.417 124.013 26.417ZM120.764 17.3371C120.85 15.6697 122.117 14.3359 123.918 14.3359C125.68 14.3359 126.9 15.5936 126.909 17.3371H120.764Z" fill="#102440"/>
</g>
<defs>
<clipPath id="clip0">
<rect width="130.795" height="32" fill="white"/>
</clipPath>
</defs>
</svg>
