<svg width="27" height="26" viewBox="0 0 27 26" fill="none" xmlns="http://www.w3.org/2000/svg">
<path d="M6.37982 21.2838L0.645508 25.7889V1.97637C0.645508 1.63499 0.781119 1.3076 1.02251 1.06621C1.2639 0.82482 1.59129 0.689209 1.93267 0.689209H25.1016C25.443 0.689209 25.7704 0.82482 26.0118 1.06621C26.2531 1.3076 26.3888 1.63499 26.3888 1.97637V19.9966C26.3888 20.338 26.2531 20.6654 26.0118 20.9068C25.7704 21.1482 25.443 21.2838 25.1016 21.2838H6.37982ZM5.4891 18.7095H23.8144V3.26353H3.21983V20.4922L5.4891 18.7095ZM8.36848 9.69934H18.6658V12.2737H8.36848V9.69934Z" fill="black" fill-opacity="0.35"/>
</svg>
