<svg width="26" height="29" viewBox="0 0 26 29" fill="none" xmlns="http://www.w3.org/2000/svg">
<path d="M12.8735 0.503418L25.1016 7.58281V21.7416L12.8735 28.821L0.645508 21.7416V7.58281L12.8735 0.503418ZM12.8735 3.47805L3.21983 9.06691V20.2575L12.8735 25.8464L22.5273 20.2575V9.06691L12.8735 3.47805ZM12.8735 19.8109C11.508 19.8109 10.1985 19.2684 9.2329 18.3028C8.26734 17.3373 7.7249 16.0277 7.7249 14.6622C7.7249 13.2967 8.26734 11.9871 9.2329 11.0216C10.1985 10.056 11.508 9.51355 12.8735 9.51355C14.2391 9.51355 15.5486 10.056 16.5142 11.0216C17.4798 11.9871 18.0222 13.2967 18.0222 14.6622C18.0222 16.0277 17.4798 17.3373 16.5142 18.3028C15.5486 19.2684 14.2391 19.8109 12.8735 19.8109ZM12.8735 17.2365C13.5563 17.2365 14.2111 16.9653 14.6939 16.4825C15.1766 15.9997 15.4479 15.345 15.4479 14.6622C15.4479 13.9794 15.1766 13.3247 14.6939 12.8419C14.2111 12.3591 13.5563 12.0879 12.8735 12.0879C12.1908 12.0879 11.536 12.3591 11.0532 12.8419C10.5704 13.3247 10.2992 13.9794 10.2992 14.6622C10.2992 15.345 10.5704 15.9997 11.0532 16.4825C11.536 16.9653 12.1908 17.2365 12.8735 17.2365Z" fill="black" fill-opacity="0.35"/>
</svg>
